<svg width="31" height="25" viewBox="0 0 31 25" fill="none" xmlns="http://www.w3.org/2000/svg">
<path d="M14.367 2.78619H14.8636C13.2404 4.14224 12.1971 5.96681 11.915 7.94275C11.6328 9.91868 12.1297 11.921 13.3193 13.6017C14.5088 15.2825 16.3158 16.5353 18.4261 17.1424C20.5364 17.7495 22.8167 17.6725 24.8704 16.9249C24.0804 18.634 22.7892 20.1182 21.1345 21.2192C19.4798 22.3203 17.5238 22.9968 15.475 23.1767C13.4262 23.3566 11.3615 23.0331 9.50122 22.2407C7.6409 21.4482 6.05471 20.2167 4.91186 18.6773C3.769 17.1379 3.11235 15.3484 3.01195 13.4998C2.91155 11.6512 3.37115 9.81269 4.34175 8.18051C5.31235 6.54832 6.75752 5.18363 8.52312 4.23201C10.2887 3.2804 12.3085 2.77755 14.367 2.7771V2.78619Z" stroke="white" stroke-width="2" stroke-linecap="round" stroke-linejoin="round"/>
<path d="M20.6845 3.92224C20.6845 4.52481 20.9507 5.10271 21.4246 5.52879C21.8985 5.95487 22.5413 6.19424 23.2115 6.19424C22.5413 6.19424 21.8985 6.43361 21.4246 6.8597C20.9507 7.28578 20.6845 7.86367 20.6845 8.46625C20.6845 7.86367 20.4183 7.28578 19.9444 6.8597C19.4705 6.43361 18.8277 6.19424 18.1575 6.19424C18.8277 6.19424 19.4705 5.95487 19.9444 5.52879C20.4183 5.10271 20.6845 4.52481 20.6845 3.92224Z" stroke="white" stroke-linecap="round" stroke-linejoin="round"/>
<path d="M23.2115 11.8742H25.7385M24.475 10.7382V13.0102" stroke="white" stroke-linecap="round" stroke-linejoin="round"/>
</svg>
