<svg width="25" height="25" viewBox="0 0 25 25" fill="none" xmlns="http://www.w3.org/2000/svg">
<path d="M20.3267 24.1028C20.0618 24.1028 19.8416 24.0137 19.6663 23.8357C19.491 23.6579 19.4033 23.4374 19.4033 23.1744C19.4033 23.0506 19.4257 22.9258 19.4707 22.7999C19.5157 22.6743 19.5757 22.5722 19.6508 22.4935C20.5586 21.5858 21.2755 20.5285 21.8016 19.3216C22.3277 18.1147 22.5907 16.8201 22.5907 15.4378C22.5907 14.0517 22.3277 12.756 21.8016 11.551C21.2755 10.3462 20.5586 9.28987 19.6508 8.38209C19.5757 8.30374 19.5157 8.20168 19.4707 8.07603C19.4257 7.95039 19.4033 7.82475 19.4033 7.69911C19.4033 7.43235 19.4923 7.21134 19.6703 7.03593C19.8481 6.86059 20.0686 6.77289 20.3316 6.77289C20.4554 6.77289 20.5754 6.79994 20.6915 6.85397C20.8075 6.90825 20.9041 6.97404 20.9815 7.05141C22.0543 8.12425 22.9002 9.37757 23.5191 10.8114C24.138 12.2452 24.4475 13.7823 24.4475 15.4227C24.4475 17.0832 24.138 18.6305 23.5191 20.0643C22.9002 21.4981 22.0543 22.7515 20.9815 23.8242C20.9035 23.9016 20.8062 23.9673 20.6894 24.0214C20.5724 24.0756 20.4515 24.1028 20.3267 24.1028ZM16.8038 20.5749C16.5407 20.5749 16.3203 20.4859 16.1425 20.3078C15.9644 20.13 15.8754 19.9095 15.8754 19.6465C15.8754 19.5227 15.9025 19.4028 15.9568 19.2866C16.0108 19.1707 16.0765 19.074 16.1539 18.9966C16.6284 18.5222 16.9946 17.9845 17.2525 17.3837C17.5104 16.783 17.6393 16.1331 17.6393 15.4341C17.6393 14.7352 17.5104 14.0865 17.2525 13.4882C16.9946 12.89 16.6284 12.3535 16.1539 11.879C16.0714 11.7965 16.0043 11.6972 15.9528 11.581C15.9012 11.4651 15.8754 11.3452 15.8754 11.2214C15.8754 10.9584 15.9644 10.7392 16.1425 10.5638C16.3203 10.3885 16.5407 10.3008 16.8038 10.3008C16.9482 10.3008 17.0772 10.3214 17.1906 10.3626C17.3041 10.4039 17.4021 10.4762 17.4846 10.5793C18.1035 11.1982 18.5935 11.9241 18.9545 12.757C19.3156 13.5897 19.4961 14.4819 19.4961 15.4338C19.4961 16.3855 19.3156 17.2791 18.9545 18.1147C18.5935 18.9502 18.1035 19.6774 17.4846 20.2964C17.4021 20.3995 17.3041 20.4718 17.1906 20.513C17.0772 20.5543 16.9482 20.5749 16.8038 20.5749ZM7.11762 14.9736H4.33247V15.8711C4.33247 16.6551 4.5749 17.3513 5.0597 17.9599C5.5445 18.5686 6.16863 18.976 6.93194 19.1823L7.3033 19.2751C7.97997 19.4447 8.36061 19.8688 8.44521 20.5473C8.52982 21.2259 8.26263 21.7406 7.64371 22.0912C6.61091 22.6679 5.52748 23.0854 4.39343 23.3436C3.25936 23.6022 2.10434 23.7521 0.928385 23.7933C0.680816 23.814 0.464193 23.7352 0.278516 23.5572C0.0928384 23.3794 0 23.1589 0 22.8959C0 22.6328 0.0876829 22.4123 0.263043 22.2342C0.438402 22.0564 0.660187 21.9572 0.928385 21.9365C1.79488 21.8953 2.64961 21.7888 3.49259 21.6172C4.33575 21.4455 5.17278 21.2012 6.00356 20.8843C4.99267 20.3892 4.15193 19.7084 3.48145 18.8419C2.81095 17.9754 2.47569 16.9851 2.47569 15.8711V14.0452C2.47569 13.7822 2.56471 13.5617 2.74276 13.3836C2.9206 13.2058 3.14104 13.1169 3.40408 13.1169H7.42708V10.0222C7.42708 9.7592 7.51608 9.53868 7.69415 9.36061C7.87197 9.18279 8.09243 9.09385 8.35547 9.09385H11.7905L7.76749 1.35733C7.64371 1.13039 7.62823 0.893142 7.72107 0.645572C7.81391 0.398003 7.97378 0.217481 8.20074 0.104014C8.4277 -0.0094534 8.65979 -0.0300883 8.89703 0.0421215C9.13426 0.114331 9.3148 0.263901 9.43858 0.490841L13.4616 8.25831C13.7917 8.87723 13.7768 9.48068 13.417 10.0687C13.0572 10.6566 12.5253 10.9506 11.8214 10.9506H9.28385V12.8074C9.28385 13.403 9.07175 13.913 8.6476 14.3374C8.22345 14.7616 7.71346 14.9736 7.11762 14.9736Z" fill="#122C6F"/>
</svg>
