<svg width="25" height="25" viewBox="0 0 25 25" fill="none" xmlns="http://www.w3.org/2000/svg">
<path d="M20.3267 25C20.0618 25 19.8416 24.9077 19.6663 24.723C19.491 24.5386 19.4033 24.3099 19.4033 24.0371C19.4033 23.9087 19.4257 23.7792 19.4707 23.6487C19.5157 23.5183 19.5757 23.4124 19.6508 23.3309C20.5586 22.3894 21.2755 21.2927 21.8016 20.0408C22.3277 18.789 22.5907 17.4463 22.5907 16.0125C22.5907 14.5748 22.3277 13.2309 21.8016 11.981C21.2755 10.7313 20.5586 9.63569 19.6508 8.69412C19.5757 8.61285 19.5157 8.50699 19.4707 8.37667C19.4257 8.24635 19.4033 8.11604 19.4033 7.98572C19.4033 7.70903 19.4923 7.47979 19.6703 7.29785C19.8481 7.11598 20.0686 7.02502 20.3316 7.02502C20.4554 7.02502 20.5754 7.05307 20.6915 7.10912C20.8075 7.16542 20.9041 7.23366 20.9815 7.3139C22.0543 8.42668 22.9002 9.72666 23.5191 11.2138C24.138 12.7011 24.4475 14.2954 24.4475 15.9968C24.4475 17.7192 24.138 19.324 23.5191 20.8112C22.9002 22.2984 22.0543 23.5984 20.9815 24.7111C20.9035 24.7914 20.8062 24.8595 20.6894 24.9156C20.5724 24.9719 20.4515 25 20.3267 25ZM16.8038 21.3408C16.5407 21.3408 16.3203 21.2485 16.1425 21.0638C15.9644 20.8794 15.8754 20.6507 15.8754 20.3779C15.8754 20.2495 15.9025 20.1251 15.9568 20.0046C16.0108 19.8843 16.0765 19.784 16.1539 19.7038C16.6284 19.2117 16.9946 18.654 17.2525 18.0308C17.5104 17.4078 17.6393 16.7337 17.6393 16.0087C17.6393 15.2837 17.5104 14.6109 17.2525 13.9903C16.9946 13.3698 16.6284 12.8134 16.1539 12.3212C16.0714 12.2356 16.0043 12.1326 15.9528 12.0121C15.9012 11.8919 15.8754 11.7675 15.8754 11.6391C15.8754 11.3663 15.9644 11.139 16.1425 10.957C16.3203 10.7752 16.5407 10.6842 16.8038 10.6842C16.9482 10.6842 17.0772 10.7057 17.1906 10.7484C17.3041 10.7912 17.4021 10.8661 17.4846 10.9731C18.1035 11.6151 18.5935 12.368 18.9545 13.2318C19.3156 14.0955 19.4961 15.021 19.4961 16.0083C19.4961 16.9955 19.3156 17.9224 18.9545 18.789C18.5935 19.6557 18.1035 20.41 17.4846 21.0519C17.4021 21.1589 17.3041 21.2339 17.1906 21.2766C17.0772 21.3194 16.9482 21.3408 16.8038 21.3408ZM7.11762 15.531H4.33247V16.4619C4.33247 17.2751 4.5749 17.9973 5.0597 18.6285C5.5445 19.2598 6.16863 19.6824 6.93194 19.8964L7.3033 19.9927C7.97997 20.1686 8.36061 20.6085 8.44521 21.3122C8.52982 22.0161 8.26263 22.5499 7.64371 22.9136C6.61091 23.5117 5.52748 23.9447 4.39343 24.2126C3.25936 24.4808 2.10434 24.6363 0.928385 24.679C0.680816 24.7005 0.464193 24.6188 0.278516 24.4341C0.0928384 24.2497 0 24.021 0 23.7482C0 23.4753 0.0876829 23.2466 0.263043 23.0619C0.438402 22.8775 0.660187 22.7746 0.928385 22.7531C1.79488 22.7104 2.64961 22.6 3.49259 22.4219C4.33575 22.2439 5.17278 21.9905 6.00356 21.6618C4.99267 21.1482 4.15193 20.4421 3.48145 19.5433C2.81095 18.6446 2.47569 17.6174 2.47569 16.4619V14.5681C2.47569 14.2953 2.56471 14.0665 2.74276 13.8818C2.9206 13.6974 3.14104 13.6051 3.40408 13.6051H7.42708V10.3953C7.42708 10.1225 7.51608 9.89376 7.69415 9.70907C7.87197 9.52463 8.09243 9.43238 8.35547 9.43238H11.7905L7.76749 1.40786C7.64371 1.17247 7.62823 0.92639 7.72107 0.669604C7.81391 0.412819 7.97378 0.225577 8.20074 0.107886C8.4277 -0.00980531 8.65979 -0.0312084 8.89703 0.0436895C9.13426 0.118587 9.3148 0.273724 9.43858 0.509113L13.4616 8.56573C13.7917 9.20769 13.7768 9.83361 13.417 10.4435C13.0572 11.0533 12.5253 11.3583 11.8214 11.3583H9.28385V13.2842C9.28385 13.902 9.07175 14.431 8.6476 14.8711C8.22345 15.3111 7.71346 15.531 7.11762 15.531Z" fill="white"/>
</svg>
