<svg width="25" height="25" viewBox="0 0 25 25" fill="none" xmlns="http://www.w3.org/2000/svg">
<path d="M19 13C19 16.866 16.0898 20 12.5 20C8.91015 20 6 16.866 6 13C6 9.134 8.91015 6 12.5 6C16.0898 6 19 9.134 19 13Z" fill="#122C6F"/>
<path fill-rule="evenodd" clip-rule="evenodd" d="M12.5 0C12.9816 0 13.3721 0.390454 13.3721 0.872093V2.03488C13.3721 2.51652 12.9816 2.90698 12.5 2.90698C12.0184 2.90698 11.6279 2.51652 11.6279 2.03488V0.872093C11.6279 0.390454 12.0184 0 12.5 0ZM3.66117 3.66117C4.00174 3.3206 4.55393 3.3206 4.8945 3.66117L5.35129 4.11797C5.69186 4.45854 5.69186 5.01071 5.35129 5.35129C5.01071 5.69186 4.45854 5.69186 4.11797 5.35129L3.66117 4.8945C3.3206 4.55393 3.3206 4.00174 3.66117 3.66117ZM21.3385 3.66148C21.6791 4.00205 21.6791 4.55423 21.3385 4.8948L20.8817 5.35159C20.5412 5.69216 19.989 5.69216 19.6484 5.35159C19.3078 5.01101 19.3078 4.45884 19.6484 4.11827L20.1052 3.66148C20.4458 3.32091 20.9979 3.32091 21.3385 3.66148ZM0 12.5C0 12.0184 0.390454 11.6279 0.872093 11.6279H2.03488C2.51652 11.6279 2.90698 12.0184 2.90698 12.5C2.90698 12.9816 2.51652 13.3721 2.03488 13.3721H0.872093C0.390454 13.3721 0 12.9816 0 12.5ZM22.093 12.5C22.093 12.0184 22.4835 11.6279 22.9651 11.6279H24.1279C24.6095 11.6279 25 12.0184 25 12.5C25 12.9816 24.6095 13.3721 24.1279 13.3721H22.9651C22.4835 13.3721 22.093 12.9816 22.093 12.5ZM19.6484 19.6484C19.989 19.3078 20.5412 19.3078 20.8817 19.6484L21.3385 20.1052C21.6791 20.4458 21.6791 20.9979 21.3385 21.3385C20.9979 21.6791 20.4458 21.6791 20.1052 21.3385L19.6484 20.8817C19.3078 20.5412 19.3078 19.989 19.6484 19.6484ZM5.35129 19.6487C5.69186 19.9893 5.69186 20.5415 5.35129 20.8821L4.8945 21.3388C4.55393 21.6794 4.00174 21.6794 3.66117 21.3388C3.3206 20.9983 3.3206 20.446 3.66117 20.1055L4.11797 19.6487C4.45854 19.3081 5.01071 19.3081 5.35129 19.6487ZM12.5 22.093C12.9816 22.093 13.3721 22.4835 13.3721 22.9651V24.1279C13.3721 24.6095 12.9816 25 12.5 25C12.0184 25 11.6279 24.6095 11.6279 24.1279V22.9651C11.6279 22.4835 12.0184 22.093 12.5 22.093Z" fill="#122C6F"/>
</svg>
