<svg width="29" height="29" viewBox="0 0 29 29" fill="none" xmlns="http://www.w3.org/2000/svg">
<path fill-rule="evenodd" clip-rule="evenodd" d="M14.7726 0.302002C10.8313 0.302 8.00996 0.432394 6.1684 0.563631C4.13794 0.708328 2.56359 2.27778 2.4058 4.30484C2.26127 6.16163 2.11456 8.96346 2.11456 12.6874V25.3749C2.11456 25.3829 2.11467 25.3908 2.11487 25.3987C2.11573 25.6882 2.13227 25.9546 2.16017 26.1989C2.35583 27.9113 3.95011 28.5987 5.22445 28.6237C6.916 28.6569 9.93067 28.6978 14.5003 28.6978C18.3312 28.6978 21.2054 28.669 23.1231 28.6402C24.0842 28.6258 25.0453 28.6101 26.0061 28.5824C26.5064 28.5673 26.9 28.1496 26.885 27.6492C26.8699 27.149 26.4521 26.7556 25.9519 26.7707L25.6771 26.7781V23.5311C26.744 22.9591 27.4707 21.8294 27.4596 20.5325C27.445 18.8439 27.4307 16.2682 27.4307 12.6874C27.4307 8.96346 27.284 6.16163 27.1395 4.30484C26.9816 2.27779 25.4073 0.70834 23.3768 0.563638C21.5353 0.4324 18.7139 0.302004 14.7726 0.302002ZM5.2476 23.9395C6.95352 23.9064 10.0463 23.8645 14.7726 23.8645C18.8629 23.8645 21.8991 23.8959 23.8646 23.9259V26.8155C23.6284 26.8196 23.3722 26.8238 23.0959 26.8279C21.1873 26.8566 18.3221 26.8853 14.5003 26.8853C9.94142 26.8853 6.93865 26.8444 5.25998 26.8115C4.74348 26.8014 4.03028 26.5998 3.96095 25.9931C3.94023 25.8117 3.92734 25.606 3.92734 25.3749C3.92734 25.1349 3.94136 24.9223 3.9641 24.7361C4.03592 24.1479 4.7488 23.9493 5.2476 23.9395ZM7.85415 6.64575C7.85415 5.97841 8.39512 5.43742 9.06248 5.43742H19.9375C20.6048 5.43742 21.1458 5.97841 21.1458 6.64575C21.1458 7.31311 20.6048 7.85409 19.9375 7.85409H9.06248C8.39512 7.85409 7.85415 7.31311 7.85415 6.64575ZM9.06248 11.4791C8.39512 11.4791 7.85415 12.0201 7.85415 12.6874C7.85415 13.3548 8.39512 13.8958 9.06248 13.8958H14.5C15.1673 13.8958 15.7083 13.3548 15.7083 12.6874C15.7083 12.0201 15.1673 11.4791 14.5 11.4791H9.06248Z" fill="url(#paint0_linear_81_70)"/>
<defs>
<linearGradient id="paint0_linear_81_70" x1="27.3742" y1="28.7039" x2="-4.18267" y2="12.8596" gradientUnits="userSpaceOnUse">
<stop stop-color="#FFD600"/>
<stop offset="1" stop-color="#FF007A"/>
</linearGradient>
</defs>
</svg>
