<svg width="29" height="29" viewBox="0 0 29 29" fill="none" xmlns="http://www.w3.org/2000/svg">
<g clip-path="url(#clip0_81_65)">
<path fill-rule="evenodd" clip-rule="evenodd" d="M12.3682 27.2907C12.2562 27.9627 11.6189 28.4223 10.959 28.2529C4.83102 26.6797 0.302063 21.1188 0.302063 14.5C0.302063 6.65868 6.65868 0.302002 14.5 0.302002C22.3413 0.302002 28.6979 6.65868 28.6979 14.5C28.6979 18.7433 26.8365 22.5517 23.8857 25.1534C24.5825 25.9064 25.102 26.5188 25.4838 26.9982C25.9978 27.6436 25.6248 28.4972 24.8033 28.5751C22.9705 28.7488 20.8812 28.7123 19.1646 28.6229C18.2525 28.5754 17.5266 27.8495 17.479 26.9374C17.389 25.2114 17.3526 23.1086 17.5296 21.2685C17.6078 20.4562 18.4441 20.0866 19.0832 20.594C19.6049 21.0083 20.2891 21.5913 21.15 22.3999C23.3977 20.5057 24.8256 17.6698 24.8256 14.5003C24.8256 8.79755 20.2026 4.17452 14.4999 4.17452C8.79707 4.17452 4.17409 8.79755 4.17409 14.5003C4.17409 19.1954 7.30756 23.1585 11.5973 24.4127C12.2523 24.6041 12.711 25.2334 12.5988 25.9066L12.3682 27.2907ZM12.9896 7.24992C12.9896 6.41575 13.6658 5.7395 14.5 5.7395C15.3342 5.7395 16.0104 6.41575 16.0104 7.24992V14.4999C16.0104 14.9005 15.8513 15.2847 15.568 15.568L11.0368 20.0992C10.4469 20.6891 9.49053 20.6891 8.90068 20.0992C8.31084 19.5094 8.31084 18.553 8.90068 17.9631L12.9896 13.8743V7.24992Z" fill="url(#paint0_linear_81_65)"/>
</g>
<defs>
<linearGradient id="paint0_linear_81_65" x1="33" y1="31.5" x2="-2.5" y2="-1.5" gradientUnits="userSpaceOnUse">
<stop stop-color="#FFD600"/>
<stop offset="1" stop-color="#FF007A"/>
</linearGradient>
<clipPath id="clip0_81_65">
<rect width="29" height="29" fill="white"/>
</clipPath>
</defs>
</svg>
