<svg width="29" height="29" viewBox="0 0 29 29" fill="none" xmlns="http://www.w3.org/2000/svg">
<path fill-rule="evenodd" clip-rule="evenodd" d="M8.51043 1.03173C9.37379 0.965627 10.4485 0.90625 11.5256 0.90625C12.603 0.90625 13.6782 0.965652 14.5418 1.03177C15.7973 1.12788 16.8529 1.96813 17.2504 3.15779C19.1928 8.97067 21.6666 18.173 22.6793 22.0112C22.9797 23.1496 22.2727 24.3254 21.0507 24.4181C20.6519 24.4484 20.2 24.4687 19.7059 24.4687C19.0795 24.4687 18.5375 24.4361 18.0907 24.3918C17.0675 24.2905 16.3196 23.5089 16.0872 22.5526L15.3783 19.6354H7.67306L6.96407 22.5526C6.73171 23.5089 5.98376 24.2905 4.96064 24.3918C4.51385 24.4361 3.97179 24.4687 3.34548 24.4687C2.85134 24.4687 2.3995 24.4484 2.00078 24.4181C0.778694 24.3254 0.0717094 23.1494 0.372151 22.0111C1.38514 18.1728 3.85957 8.97048 5.80196 3.15767C6.19949 1.96808 7.25509 1.12785 8.51043 1.03173ZM11.5277 6.94792C11.2841 6.94792 11.0684 7.1053 10.9941 7.33724L8.79548 14.1979H14.2599L12.0613 7.33724C11.9869 7.1053 11.7713 6.94792 11.5277 6.94792ZM21.982 25.7652C23.7295 25.197 24.5833 23.3065 24.1399 21.626C23.2324 18.1867 21.1369 10.383 19.2996 4.57845C19.7409 4.60039 20.1591 4.62803 20.5369 4.65695C21.7923 4.75306 22.848 5.59331 23.2455 6.78298C25.1877 12.5958 27.6616 21.7982 28.6743 25.6364C28.9747 26.7747 28.2677 27.9506 27.0457 28.0433C26.6469 28.0736 26.1951 28.0939 25.7008 28.0939C25.0746 28.0939 24.5325 28.0612 24.0857 28.017C23.0626 27.9157 22.3146 27.1341 22.0823 26.1778L21.982 25.7652ZM6.39621 25.5262L6.36721 25.6361C6.06676 26.7744 6.77376 27.9504 7.99586 28.0431C8.39455 28.0734 8.84641 28.0937 9.34056 28.0937C9.96684 28.0937 10.5089 28.0611 10.9557 28.0168C11.9788 27.9155 12.7268 27.1339 12.9592 26.1776L13.6681 23.2604H14.7219C14.6825 23.1445 14.6483 23.0273 14.6197 22.9093L14.1911 21.1458H8.86049L8.43195 22.9093C8.17035 23.9857 7.45683 24.9956 6.39621 25.5262Z" fill="url(#paint0_linear_81_78)"/>
<defs>
<linearGradient id="paint0_linear_81_78" x1="1.39619" y1="3.103" x2="33.0902" y2="21.7893" gradientUnits="userSpaceOnUse">
<stop stop-color="#FFD600"/>
<stop offset="1" stop-color="#FF007A"/>
</linearGradient>
</defs>
</svg>
