<svg width="29" height="29" viewBox="0 0 29 29" fill="none" xmlns="http://www.w3.org/2000/svg">
<g clip-path="url(#clip0_81_62)">
<path fill-rule="evenodd" clip-rule="evenodd" d="M15.0959 0.32556C15.0218 0.320777 14.9482 0.31792 14.8751 0.316817C14.2733 0.307728 13.6416 0.302734 12.9802 0.302734C9.22865 0.302734 6.4345 0.463385 4.59777 0.620691C2.6121 0.790758 1.08547 2.33065 0.928091 4.31573C0.766095 6.35891 0.594727 9.6634 0.594727 14.5007C0.594727 19.3379 0.766095 22.6424 0.928091 24.6856C1.08547 26.6706 2.6121 28.2105 4.59777 28.3806C6.35245 28.5309 8.98088 28.6842 12.4831 28.6976C12.2984 28.31 12.1953 27.8761 12.1961 27.4178C12.1982 26.0725 12.2776 25.073 12.364 24.3818C12.5024 23.2732 13.0585 22.3638 13.7235 21.6988L21.9293 13.493C22.6994 12.7229 24.0006 12.1021 25.3551 12.4726C25.3487 11.8642 25.3395 11.2844 25.328 10.7325C25.3269 10.6794 25.3249 10.626 25.3219 10.5723C23.2126 10.5568 21.0025 10.4036 19.3283 10.2556C17.2389 10.0709 15.5975 8.42964 15.4128 6.34019C15.2643 4.66043 15.1105 2.44114 15.0959 0.32556ZM24.7856 8.75274C24.2325 7.64271 23.1989 5.9169 21.4751 4.19317C19.7516 2.46966 18.026 1.43607 16.9156 0.882718C16.9501 2.75368 17.0852 4.67577 17.2183 6.18063C17.3256 7.39506 18.2734 8.34276 19.4878 8.45012C20.9927 8.58309 22.9147 8.71831 24.7856 8.75274ZM11.4238 6.05266C11.7632 5.57753 11.6532 4.9172 11.178 4.5778C10.7029 4.2384 10.0425 4.34845 9.7031 4.82361L7.40775 8.03717L5.87359 6.50301C5.4607 6.09012 4.79126 6.09012 4.37836 6.50301C3.96546 6.91596 3.96546 7.58537 4.37836 7.99826L6.795 10.4149C7.0148 10.6347 7.32014 10.7466 7.62984 10.721C7.9396 10.6954 8.22235 10.5347 8.40299 10.2818L11.4238 6.05266ZM11.178 11.2236C11.6532 11.563 11.7632 12.2234 11.4238 12.6985L8.40299 16.9277C8.22235 17.1806 7.9396 17.3412 7.62984 17.3668C7.32014 17.3924 7.0148 17.2806 6.795 17.0608L4.37836 14.6441C3.96546 14.2312 3.96546 13.5618 4.37836 13.1488C4.79126 12.736 5.4607 12.736 5.87359 13.1488L7.40775 14.683L9.7031 11.4694C10.0425 10.9943 10.7029 10.8842 11.178 11.2236ZM27.8103 19.374C28.3615 18.8228 28.6024 18.0295 28.2139 17.3538C27.947 16.8896 27.5351 16.3133 26.9034 15.6816C26.2716 15.0499 25.6954 14.6379 25.2311 14.3711C24.5554 13.9825 23.7621 14.2235 23.2109 14.7747L22.0742 15.9114C22.7134 16.2674 23.5475 16.8473 24.4799 17.7797C25.4656 18.7654 26.0573 19.6412 26.4071 20.2931C26.4685 20.4076 26.5224 20.515 26.5696 20.6147L27.8103 19.374ZM21.1096 17.4497C20.9582 17.3684 20.8284 17.3074 20.7233 17.2623L15.0051 22.9805C14.5596 23.4261 14.2406 23.9811 14.1625 24.6064C14.0858 25.22 14.0106 26.1453 14.0086 27.4208C14.0075 28.0601 14.5248 28.5774 15.1642 28.5764C16.4396 28.5744 17.365 28.4991 17.9786 28.4225C18.6039 28.3444 19.1589 28.0254 19.6045 27.5798L25.1691 22.0152C25.1448 21.9621 25.1254 21.9059 25.1114 21.8469C25.1107 21.8444 25.1092 21.8387 25.1066 21.8297C25.1001 21.8075 25.0871 21.766 25.0654 21.7067C25.0219 21.5881 24.9431 21.3981 24.81 21.15C24.5443 20.6549 24.0589 19.922 23.1982 19.0613C22.3376 18.2006 21.6048 17.7153 21.1096 17.4497Z" fill="url(#paint0_linear_81_62)"/>
</g>
<defs>
<linearGradient id="paint0_linear_81_62" x1="30.8143" y1="34.7119" x2="-4.5" y2="-16.5" gradientUnits="userSpaceOnUse">
<stop stop-color="#FFD600"/>
<stop offset="1" stop-color="#FF007A"/>
</linearGradient>
<clipPath id="clip0_81_62">
<rect width="29" height="29" fill="white"/>
</clipPath>
</defs>
</svg>
