<svg width="29" height="29" viewBox="0 0 29 29" fill="none" xmlns="http://www.w3.org/2000/svg">
<path fill-rule="evenodd" clip-rule="evenodd" d="M17.337 0C17.8592 0 18.2826 0.442626 18.2826 0.988636V1.97727H19.2283C19.7505 1.97727 20.1739 2.4199 20.1739 2.96591C20.1739 3.51192 19.7505 3.95455 19.2283 3.95455H18.2826V4.94318C18.2826 5.48917 17.8592 5.93182 17.337 5.93182C16.8147 5.93182 16.3913 5.48917 16.3913 4.94318V3.95455H15.4457C14.9234 3.95455 14.5 3.51192 14.5 2.96591C14.5 2.4199 14.9234 1.97727 15.4457 1.97727H16.3913V0.988636C16.3913 0.442626 16.8147 0 17.337 0ZM11.9783 3.95455C5.36286 3.95455 0 9.56117 0 16.4773C0 23.3934 5.36286 29 11.9783 29C16.9492 29 21.2109 25.8345 23.0235 21.3303C23.2949 20.656 23.0828 19.989 22.6865 19.5765C22.3045 19.179 21.7213 18.9738 21.1297 19.1223C20.5435 19.2694 19.9308 19.3476 19.2993 19.3476C14.9873 19.3476 11.4918 15.6932 11.4918 11.1851C11.4918 9.34591 12.0725 7.65132 13.0531 6.287C13.3782 5.83467 13.4095 5.26811 13.2225 4.8141C13.0299 4.34663 12.5808 3.95455 11.9783 3.95455ZM21.2779 5.6865C21.7279 4.25601 23.6634 4.25601 24.1134 5.6865L25.0689 8.72346L27.9738 9.72232C29.3421 10.1928 29.3421 12.2163 27.9738 12.6868L25.0689 13.6856L24.1134 16.7226C23.6634 18.1531 21.7279 18.1531 21.2779 16.7226L20.3224 13.6856L17.4175 12.6868C16.0492 12.2163 16.0492 10.1928 17.4175 9.72232L20.3224 8.72346L21.2779 5.6865Z" fill="url(#paint0_linear_81_74)"/>
<defs>
<linearGradient id="paint0_linear_81_74" x1="23.9565" y1="22.7386" x2="1.67873" y2="-3.97737" gradientUnits="userSpaceOnUse">
<stop stop-color="#FFD600"/>
<stop offset="1" stop-color="#FF007A"/>
</linearGradient>
</defs>
</svg>
