<svg width="36" height="32" viewBox="0 0 36 32" fill="none" xmlns="http://www.w3.org/2000/svg">
<path d="M7.05 32C6.1833 32 5.4667 31.7167 4.9 31.15C4.3333 30.5833 4.05 29.8667 4.05 29C4.05 28.4 4.2 27.825 4.5 27.275C4.8 26.725 5.2333 26.3333 5.8 26.1L14.4 22.7V15.8C12.4 18.2333 10.375 20.1333 8.325 21.5C6.275 22.8667 4 23.6667 1.5 23.9C1.1 23.9667 0.75 23.85 0.45 23.55C0.15 23.25 0 22.8833 0 22.45C0 22.05 0.14167 21.7 0.425 21.4C0.70833 21.1 1.05 20.9167 1.45 20.85C3.38333 20.6167 5.1667 20 6.8 19C8.4333 18 9.9167 16.65 11.25 14.95L14.15 11.7C14.4833 11.3 14.875 10.9667 15.325 10.7C15.775 10.4333 16.2667 10.3 16.8 10.3H19.2C19.7333 10.3 20.2333 10.4333 20.7 10.7C21.1667 10.9667 21.5667 11.3 21.9 11.7L24.8 14.95C26.2 16.5833 27.7 17.9167 29.3 18.95C30.9 19.9833 32.65 20.6167 34.55 20.85C34.95 20.9167 35.2917 21.1 35.575 21.4C35.8583 21.7 36 22.05 36 22.45C36 22.8833 35.85 23.25 35.55 23.55C35.25 23.85 34.9 23.9667 34.5 23.9C32 23.6667 29.725 22.8667 27.675 21.5C25.625 20.1333 23.6 18.2333 21.6 15.8V22.7L30.2 26.1C30.7667 26.3333 31.2 26.725 31.5 27.275C31.8 27.825 31.95 28.4 31.95 29C31.95 29.8667 31.6667 30.5833 31.1 31.15C30.5333 31.7167 29.8167 32 28.95 32H13.8V31.45C13.8 30.5833 14.0667 29.8833 14.6 29.35C15.1333 28.8167 15.8333 28.55 16.7 28.55H23.35C23.6167 28.55 23.85 28.45 24.05 28.25C24.25 28.05 24.35 27.8167 24.35 27.55C24.35 27.2833 24.25 27.05 24.05 26.85C23.85 26.65 23.6167 26.55 23.35 26.55H16.7C15.2333 26.55 14.0667 27 13.2 27.9C12.3333 28.8 11.9 29.9833 11.9 31.45V32H7.05ZM18 7.3C17 7.3 16.1417 6.9417 15.425 6.225C14.7083 5.5083 14.35 4.65 14.35 3.65C14.35 2.65 14.7083 1.79167 15.425 1.075C16.1417 0.35833 17 0 18 0C19 0 19.8583 0.35833 20.575 1.075C21.2917 1.79167 21.65 2.65 21.65 3.65C21.65 4.65 21.2917 5.5083 20.575 6.225C19.8583 6.9417 19 7.3 18 7.3Z" fill="url(#paint0_linear_90_3)"/>
<defs>
<linearGradient id="paint0_linear_90_3" x1="20.5" y1="45.5" x2="19.5" y2="2.5" gradientUnits="userSpaceOnUse">
<stop offset="0.246626" stop-color="#FFD600"/>
<stop offset="1" stop-color="#FF007A"/>
</linearGradient>
</defs>
</svg>
